<svg width="40" height="45" viewBox="0 0 40 45" fill="none" xmlns="http://www.w3.org/2000/svg">
<path d="M36.8394 19.875L39.3435 21.3771C39.498 21.4696 39.6259 21.6005 39.7147 21.7572C39.8035 21.9138 39.8501 22.0908 39.8501 22.2708C39.8501 22.4509 39.8035 22.6279 39.7147 22.7845C39.6259 22.9412 39.498 23.0721 39.3435 23.1646L19.9998 34.7708L0.656029 23.1646C0.501542 23.0721 0.373666 22.9412 0.284876 22.7845C0.196086 22.6279 0.149414 22.4509 0.149414 22.2708C0.149414 22.0908 0.196086 21.9138 0.284876 21.7572C0.373666 21.6005 0.501542 21.4696 0.656029 21.3771L3.1602 19.875L19.9998 29.9792L36.8394 19.875ZM36.8394 29.6667L39.3435 31.1688C39.498 31.2612 39.6259 31.3922 39.7147 31.5488C39.8035 31.7055 39.8501 31.8825 39.8501 32.0625C39.8501 32.2426 39.8035 32.4195 39.7147 32.5762C39.6259 32.7328 39.498 32.8638 39.3435 32.9563L21.0727 43.9188C20.7487 44.1134 20.3778 44.2163 19.9998 44.2163C19.6218 44.2163 19.2509 44.1134 18.9269 43.9188L0.656029 32.9563C0.501542 32.8638 0.373666 32.7328 0.284876 32.5762C0.196086 32.4195 0.149414 32.2426 0.149414 32.0625C0.149414 31.8825 0.196086 31.7055 0.284876 31.5488C0.373666 31.3922 0.501542 31.2612 0.656029 31.1688L3.1602 29.6667L19.9998 39.7708L36.8394 29.6667V29.6667ZM21.0706 0.727086L39.3435 11.6896C39.498 11.7821 39.6259 11.913 39.7147 12.0697C39.8035 12.2263 39.8501 12.4033 39.8501 12.5833C39.8501 12.7634 39.8035 12.9404 39.7147 13.097C39.6259 13.2537 39.498 13.3846 39.3435 13.4771L19.9998 25.0833L0.656029 13.4771C0.501542 13.3846 0.373666 13.2537 0.284876 13.097C0.196086 12.9404 0.149414 12.7634 0.149414 12.5833C0.149414 12.4033 0.196086 12.2263 0.284876 12.0697C0.373666 11.913 0.501542 11.7821 0.656029 11.6896L18.9269 0.727086C19.2509 0.532412 19.6218 0.429565 19.9998 0.429565C20.3778 0.429565 20.7487 0.532412 21.0727 0.727086H21.0706Z" fill="#00B533"/>
</svg>
